<svg width="24" height="24" viewBox="0 0 24 24" fill="none" xmlns="http://www.w3.org/2000/svg">
  <defs>
    <linearGradient id="boxGradient" x1="0%" y1="0%" x2="100%" y2="100%">
      <stop offset="0%" style="stop-color:#EF5BA6;stop-opacity:1" />
      <stop offset="100%" style="stop-color:#E91E63;stop-opacity:1" />
    </linearGradient>
    <linearGradient id="ribbonGradient" x1="0%" y1="0%" x2="100%" y2="100%">
      <stop offset="0%" style="stop-color:#FF6B9D;stop-opacity:1" />
      <stop offset="100%" style="stop-color:#EF5BA6;stop-opacity:1" />
    </linearGradient>
  </defs>
  
  <!-- 盒子主体 -->
  <rect x="5" y="8" width="14" height="10" rx="2" ry="2" 
        fill="url(#boxGradient)" 
        stroke="#EF5BA6" 
        stroke-width="1.5"/>
  
  <!-- 盒子盖子 -->
  <path d="M4 8 L20 8 Q21 8 21 9 L21 10 Q21 11 20 11 L4 11 Q3 11 3 10 L3 9 Q3 8 4 8 Z" 
        fill="url(#boxGradient)" 
        stroke="#EF5BA6" 
        stroke-width="1.5"/>
  
  <!-- 蝴蝶结装饰 -->
  <path d="M12 8 L12 5" 
        stroke="url(#ribbonGradient)" 
        stroke-width="1.5" 
        stroke-linecap="round"/>
  
  <!-- 蝴蝶结左侧 -->
  <path d="M8 5 Q10 3 12 5 Q10 7 8 5" 
        fill="url(#ribbonGradient)" 
        stroke="#EF5BA6" 
        stroke-width="1.2"/>
  
  <!-- 蝴蝶结右侧 -->
  <path d="M16 5 Q14 3 12 5 Q14 7 16 5" 
        fill="url(#ribbonGradient)" 
        stroke="#EF5BA6" 
        stroke-width="1.2"/>
  
  <!-- 神秘感装饰点 -->
  <circle cx="9" cy="13" r="1" fill="#ffffff" opacity="0.8"/>
  <circle cx="15" cy="15" r="1" fill="#ffffff" opacity="0.8"/>
  <circle cx="12" cy="16" r="0.8" fill="#ffffff" opacity="0.6"/>
  
  <!-- 光效装饰 -->
  <circle cx="7" cy="10" r="0.5" fill="#ffffff" opacity="0.9"/>
  <circle cx="17" cy="12" r="0.5" fill="#ffffff" opacity="0.7"/>
</svg> 