<svg width="24" height="24" viewBox="0 0 24 24" fill="none" xmlns="http://www.w3.org/2000/svg">
  <path d="M8.5 11C9.32843 11 10 10.3284 10 9.5C10 8.67157 9.32843 8 8.5 8C7.67157 8 7 8.67157 7 9.5C7 10.3284 7.67157 11 8.5 11Z" fill="currentColor"/>
  <path d="M13 9.5C13 10.3284 12.3284 11 11.5 11C10.6716 11 10 10.3284 10 9.5C10 8.67157 10.6716 8 11.5 8C12.3284 8 13 8.67157 13 9.5Z" fill="currentColor"/>
  <path d="M7.5 2C4.46243 2 2 4.13401 2 6.8C2 8.47852 2.85107 9.95508 4.17578 10.8086C4.06055 11.4023 3.79688 12.2852 3.46094 13.0469C3.38281 13.2344 3.5 13.4453 3.70312 13.4648C4.32031 13.5352 5.44922 13.3984 6.26172 12.8164C6.66797 12.9297 7.08594 13 7.5 13C10.5376 13 13 10.866 13 8.2C13 5.53401 10.5376 3.4 7.5 3.4C7.5 2.63137 7.5 2 7.5 2Z" fill="currentColor"/>
  <path d="M16.5 8C13.4624 8 11 10.134 11 12.8C11 15.466 13.4624 17.6 16.5 17.6C16.9141 17.6 17.332 17.5297 17.7383 17.4164C18.5508 17.9984 19.6797 18.1352 20.2969 18.0648C20.5 18.0453 20.6172 17.8344 20.5391 17.6469C20.2031 16.8852 19.9395 16.0023 19.8242 15.4086C21.1489 14.5551 22 13.0785 22 11.4C22 8.73401 19.5376 6.6 16.5 6.6C16.5 7.4 16.5 8 16.5 8Z" fill="currentColor"/>
  <circle cx="15.5" cy="12.5" r="1" fill="white"/>
  <circle cx="17.5" cy="12.5" r="1" fill="white"/>
</svg> 